<svg width="144" height="46" viewBox="0 0 144 46" fill="none" xmlns="http://www.w3.org/2000/svg">
<path d="M10.8366 44.6836C10.4739 44.6836 10.12 44.6791 9.76024 44.6715C9.01488 44.6623 8.27127 44.6004 7.53549 44.4866C6.84942 44.3739 6.1848 44.1646 5.56356 43.8654C4.94801 43.5685 4.38659 43.1793 3.90079 42.7127C3.40795 42.2515 2.99765 41.7166 2.68612 41.1293C2.37118 40.5381 2.1532 39.9044 2.03982 39.2503C1.91737 38.5474 1.85112 37.8367 1.84164 37.1243C1.8341 36.8852 1.82422 36.0891 1.82422 36.0891V9.89682C1.82422 9.89682 1.83474 9.11289 1.8417 8.88257C1.85078 8.17129 1.91665 7.46171 2.03872 6.75995C2.15232 6.10405 2.37046 5.46853 2.68557 4.87541C2.99595 4.28843 3.40399 3.75317 3.89385 3.29036C4.38316 2.82316 4.94638 2.43196 5.56298 2.13106C6.18279 1.83272 6.84615 1.62482 7.53085 1.51432C8.26903 1.3993 9.01523 1.33712 9.76317 1.3283L10.8372 1.31445H133.158L134.244 1.32886C134.986 1.33725 135.724 1.39887 136.456 1.51321C137.148 1.6251 137.818 1.83444 138.445 2.13438C139.68 2.7408 140.685 3.70022 141.319 4.87817C141.629 5.46721 141.844 6.09754 141.956 6.74777C142.079 7.45529 142.149 8.17045 142.164 8.88756C142.167 9.20866 142.167 9.55357 142.167 9.89682C142.176 10.322 142.176 10.7267 142.176 11.1347V34.8644C142.176 35.2763 142.176 35.6782 142.167 36.0835C142.167 36.4522 142.167 36.79 142.161 37.1377C142.148 37.8419 142.081 38.5443 141.958 39.2391C141.847 39.898 141.63 40.5366 141.316 41.1326C141.002 41.7137 140.594 42.244 140.107 42.7038C139.621 43.173 139.058 43.5645 138.442 43.8632C137.816 44.1647 137.147 44.3749 136.456 44.4866C135.72 44.6011 134.977 44.6628 134.231 44.6715C133.883 44.6791 133.518 44.6836 133.163 44.6836L131.873 44.6859L10.8366 44.6836Z" fill="#202020"/>
<path d="M27.6813 23.3212C27.6933 22.3253 27.9418 21.3489 28.4038 20.4827C28.8657 19.6165 29.5259 18.8888 30.3231 18.3672C29.8167 17.5975 29.1487 16.9639 28.3719 16.5171C27.5952 16.0702 26.7313 15.8222 25.8488 15.7929C23.9663 15.5825 22.1413 16.9917 21.182 16.9917C20.2041 16.9917 18.7272 15.8138 17.1367 15.8485C16.1079 15.8839 15.1054 16.2023 14.2266 16.7727C13.3478 17.3431 12.6228 18.146 12.1224 19.1032C9.95423 23.0983 11.5714 28.9698 13.6484 32.1991C14.6875 33.7804 15.9018 35.5468 17.4909 35.4842C19.0458 35.4155 19.6266 34.4288 21.5035 34.4288C23.3631 34.4288 23.908 35.4842 25.5292 35.4443C27.1978 35.4155 28.249 33.856 29.2517 32.2597C29.9983 31.1329 30.5727 29.8877 30.9539 28.57C29.9845 28.1335 29.1573 27.4032 28.5754 26.4698C27.9933 25.5364 27.6824 24.4414 27.6813 23.3212Z" fill="white"/>
<path d="M25.6155 12.8548C26.5978 11.8348 27.0818 10.5238 26.9646 9.2002C25.4637 9.33653 24.0775 9.95693 23.0818 10.9378C22.595 11.417 22.2223 11.9744 21.9847 12.5783C21.7472 13.1821 21.6495 13.8205 21.6974 14.4571C22.448 14.4638 23.1907 14.323 23.8694 14.0455C24.548 13.768 25.1451 13.3608 25.6155 12.8548Z" fill="white"/>
<path d="M47.3912 30.2633H42.2865L41.0606 34.171H38.8984L43.7336 19.7139H45.98L50.8151 34.171H48.616L47.3912 30.2633ZM42.8152 28.4602H46.8615L44.8668 22.1184H44.8109L42.8152 28.4602Z" fill="white"/>
<path d="M61.4072 29.1611C61.4072 32.5102 59.7706 34.6619 57.301 34.6619C56.6753 34.6977 56.0532 34.5399 55.5056 34.2064C54.9581 33.8729 54.5074 33.3774 54.2051 32.7764H54.1583V38.1144H52.1387V23.7721H54.0937V25.5645H54.1309C54.447 24.9665 54.9054 24.4734 55.4571 24.1379C56.0087 23.8024 56.6332 23.637 57.2638 23.6592C59.761 23.6593 61.4072 25.8215 61.4072 29.1611ZM59.3312 29.1611C59.3312 26.9792 58.3018 25.5447 56.731 25.5447C55.1879 25.5447 54.1499 27.0095 54.1499 29.1611C54.1499 31.3326 55.1879 32.7868 56.731 32.7868C58.3018 32.7868 59.3312 31.3628 59.3312 29.1611Z" fill="white"/>
<path d="M73.3242 29.1611C73.3242 32.5102 71.6877 34.6619 69.2179 34.6619C68.5924 34.6977 67.9702 34.5399 67.4227 34.2064C66.8751 33.8729 66.4244 33.3774 66.1221 32.7764H66.0754V38.1144H64.0557V23.7721H66.0106V25.5645H66.0478C66.3639 24.9665 66.8223 24.4734 67.374 24.1379C67.9256 23.8024 68.5501 23.637 69.1808 23.6592C71.6781 23.6592 73.3242 25.8214 73.3242 29.1611ZM71.2483 29.1611C71.2483 26.9792 70.2188 25.5447 68.648 25.5447C67.1049 25.5447 66.0669 27.0095 66.0669 29.1611C66.0669 31.3326 67.1049 32.7868 68.648 32.7868C70.2188 32.7868 71.2483 31.3628 71.2483 29.1611Z" fill="white"/>
<path d="M80.7352 30.0397C80.8883 31.4272 82.2184 32.3381 84.0359 32.3381C85.7774 32.3381 87.0304 31.4271 87.0304 30.1761C87.0304 29.0902 86.2747 28.44 84.4854 27.9944L82.6961 27.5576C80.1609 26.937 78.9839 25.7356 78.9839 23.7859C78.9839 21.372 81.0599 19.7139 84.0076 19.7139C86.925 19.7139 88.9251 21.372 88.9923 23.7859H86.9066C86.7817 22.3897 85.6428 21.5469 83.9783 21.5469C82.3139 21.5469 81.175 22.3996 81.175 23.6407C81.175 24.6298 81.9024 25.2118 83.6819 25.6574L85.2031 26.0358C88.0357 26.7147 89.2127 27.8678 89.2127 29.9142C89.2127 32.5317 87.1553 34.171 83.8828 34.171C80.821 34.171 78.7536 32.5702 78.6201 30.0396L80.7352 30.0397Z" fill="white"/>
<path d="M93.9745 22.3428V24.8461H95.8334V26.5656H93.9745V32.3972C93.9745 33.3031 94.3467 33.7253 95.1639 33.7253C95.3846 33.7211 95.6048 33.7043 95.8239 33.675V35.3842C95.4565 35.4585 95.0831 35.4922 94.7094 35.4846C92.7303 35.4846 91.9584 34.6802 91.9584 32.6287V26.5656H90.5371V24.8461H91.9584V22.3428H93.9745Z" fill="white"/>
<path d="M97.1572 28.9143C97.1572 25.6859 98.9677 23.6572 101.791 23.6572C104.624 23.6572 106.426 25.6859 106.426 28.9143C106.426 32.1517 104.633 34.1715 101.791 34.1715C98.9498 34.1715 97.1572 32.1517 97.1572 28.9143ZM104.382 28.9143C104.382 26.6997 103.416 25.3926 101.791 25.3926C100.166 25.3926 99.2006 26.7096 99.2006 28.9143C99.2006 31.1378 100.166 32.435 101.791 32.435C103.416 32.435 104.382 31.1378 104.382 28.9143Z" fill="white"/>
<path d="M109.074 23.768H111.102V25.5387H111.151C111.288 24.9857 111.611 24.4969 112.064 24.1546C112.518 23.8123 113.075 23.6373 113.642 23.659C113.887 23.6582 114.131 23.685 114.371 23.7388V25.7362C114.062 25.6412 113.739 25.5977 113.415 25.6072C113.106 25.5946 112.799 25.6493 112.513 25.7675C112.227 25.8857 111.97 26.0647 111.76 26.2921C111.549 26.5195 111.39 26.79 111.294 27.0848C111.197 27.3798 111.165 27.6922 111.2 28.0008V34.1715H109.074V23.768Z" fill="white"/>
<path d="M123.522 31.0305C123.242 32.8932 121.449 34.1715 119.154 34.1715C116.202 34.1715 114.37 32.1715 114.37 28.963C114.37 25.7446 116.212 23.6572 119.067 23.6572C121.874 23.6572 123.639 25.6074 123.639 28.7185V29.4401H116.472V29.5673C116.44 29.945 116.486 30.3254 116.61 30.6833C116.733 31.0412 116.931 31.3686 117.188 31.6435C117.447 31.9183 117.76 32.1346 118.107 32.2777C118.454 32.4209 118.828 32.4876 119.202 32.4737C119.694 32.5204 120.188 32.4051 120.61 32.145C121.032 31.885 121.36 31.4941 121.545 31.0305H123.522ZM116.482 27.9681H121.554C121.573 27.6285 121.523 27.2888 121.405 26.97C121.288 26.6513 121.107 26.3606 120.873 26.116C120.64 25.8715 120.359 25.6784 120.047 25.549C119.737 25.4196 119.403 25.3565 119.067 25.3638C118.727 25.3618 118.391 25.4277 118.077 25.5577C117.763 25.6877 117.478 25.8794 117.238 26.1214C116.998 26.3636 116.807 26.6514 116.677 26.9684C116.547 27.2853 116.481 27.625 116.482 27.9681Z" fill="white"/>
<path d="M40.4275 14.3659C40.3681 14.3659 40.3176 14.3476 40.2761 14.3111C40.2405 14.2685 40.2227 14.2168 40.2227 14.156V8.19606C40.2227 8.12913 40.2405 8.07741 40.2761 8.0409C40.3176 7.99831 40.3681 7.97701 40.4275 7.97701H42.4491C43.3456 7.97701 43.9927 8.18389 44.3905 8.59765C44.7883 9.00532 44.9961 9.62291 45.0139 10.4504C45.0198 10.6269 45.0228 10.8642 45.0228 11.1623C45.0228 11.4605 45.0198 11.7008 45.0139 11.8834C44.9961 12.4614 44.9011 12.933 44.7289 13.298C44.5627 13.657 44.2985 13.9248 43.9363 14.1012C43.5741 14.2777 43.0932 14.3659 42.4936 14.3659H40.4275ZM42.4491 13.5901C42.8587 13.5901 43.1823 13.5323 43.4198 13.4167C43.6632 13.3011 43.8383 13.1185 43.9452 12.8691C44.058 12.6135 44.1204 12.2728 44.1322 11.8469C44.1441 11.4818 44.15 11.2536 44.15 11.1623C44.15 11.065 44.1441 10.8398 44.1322 10.4869C44.1204 9.88455 43.9808 9.44646 43.7137 9.17265C43.4465 8.89275 43.0101 8.75281 42.4045 8.75281H41.0954V13.5901H42.4491Z" fill="white"/>
<path d="M48.1438 14.4572C47.4907 14.4572 46.9831 14.2685 46.6209 13.8913C46.2647 13.5141 46.0747 13.0121 46.051 12.3853L46.0421 11.9929L46.051 11.6004C46.0747 10.9798 46.2677 10.4808 46.6298 10.1036C46.992 9.72027 47.4967 9.5286 48.1438 9.5286C48.7909 9.5286 49.2956 9.72027 49.6578 10.1036C50.0199 10.4808 50.2129 10.9798 50.2366 11.6004C50.2426 11.6674 50.2455 11.7982 50.2455 11.9929C50.2455 12.1876 50.2426 12.3184 50.2366 12.3853C50.2129 13.0121 50.0199 13.5141 49.6578 13.8913C49.3015 14.2685 48.7969 14.4572 48.1438 14.4572ZM48.1438 13.7544C48.5178 13.7544 48.8117 13.6327 49.0255 13.3893C49.2451 13.1459 49.3639 12.7961 49.3817 12.3397C49.3876 12.2789 49.3906 12.1633 49.3906 11.9929C49.3906 11.8225 49.3876 11.7069 49.3817 11.6461C49.3639 11.1897 49.2451 10.8398 49.0255 10.5965C48.8117 10.3531 48.5178 10.2314 48.1438 10.2314C47.7698 10.2314 47.4729 10.3531 47.2532 10.5965C47.0336 10.8398 46.9178 11.1897 46.9059 11.6461L46.897 11.9929L46.9059 12.3397C46.9178 12.7961 47.0336 13.1459 47.2532 13.3893C47.4729 13.6327 47.7698 13.7544 48.1438 13.7544Z" fill="white"/>
<path d="M52.4679 14.3659C52.3907 14.3659 52.3314 14.3476 52.2898 14.3111C52.2482 14.2746 52.2126 14.2168 52.1829 14.1377L50.9183 9.90281L50.9005 9.81154C50.9005 9.75677 50.9183 9.71114 50.954 9.67463C50.9955 9.63812 51.04 9.61987 51.0875 9.61987H51.4794C51.5388 9.61987 51.5863 9.63812 51.6219 9.67463C51.6634 9.70505 51.6902 9.73852 51.702 9.77503L52.6906 13.2159L53.7503 9.81154C53.7622 9.76286 53.7889 9.72027 53.8305 9.68376C53.872 9.64117 53.9284 9.61987 53.9997 9.61987H54.3025C54.3737 9.61987 54.4301 9.64117 54.4717 9.68376C54.5132 9.72027 54.54 9.76286 54.5518 9.81154L55.6116 13.2159L56.6001 9.77503C56.6061 9.7446 56.6268 9.71114 56.6625 9.67463C56.704 9.63812 56.7545 9.61987 56.8139 9.61987H57.2146C57.2621 9.61987 57.3037 9.63812 57.3393 9.67463C57.3749 9.71114 57.3927 9.75677 57.3927 9.81154L57.3749 9.90281L56.1192 14.1377C56.0895 14.2168 56.0539 14.2746 56.0124 14.3111C55.9708 14.3476 55.9085 14.3659 55.8253 14.3659H55.478C55.3177 14.3659 55.2198 14.2898 55.1841 14.1377L54.1511 10.8703L53.118 14.1377C53.0705 14.2898 52.9696 14.3659 52.8152 14.3659H52.4679Z" fill="white"/>
<path d="M58.5839 14.3659C58.5246 14.3659 58.4741 14.3476 58.4325 14.3111C58.3969 14.2685 58.3791 14.2168 58.3791 14.156V9.82979C58.3791 9.76894 58.3969 9.72027 58.4325 9.68376C58.4741 9.64117 58.5246 9.61987 58.5839 9.61987H59.0025C59.0619 9.61987 59.1094 9.64117 59.145 9.68376C59.1865 9.72027 59.2073 9.76894 59.2073 9.82979V10.2314C59.3795 10.0062 59.5814 9.83283 59.8129 9.71114C60.0504 9.58945 60.3443 9.5286 60.6946 9.5286C61.2645 9.5286 61.7068 9.71722 62.0215 10.0945C62.3421 10.4656 62.5024 10.9615 62.5024 11.5822V14.156C62.5024 14.2168 62.4816 14.2685 62.4401 14.3111C62.4045 14.3476 62.357 14.3659 62.2976 14.3659H61.8523C61.7929 14.3659 61.7425 14.3476 61.7009 14.3111C61.6653 14.2685 61.6475 14.2168 61.6475 14.156V11.6278C61.6475 11.1958 61.5436 10.8611 61.3358 10.6238C61.1339 10.3865 60.84 10.2679 60.4541 10.2679C60.0801 10.2679 59.7832 10.3896 59.5636 10.633C59.3439 10.8703 59.234 11.2019 59.234 11.6278V14.156C59.234 14.2168 59.2133 14.2685 59.1717 14.3111C59.1361 14.3476 59.0886 14.3659 59.0292 14.3659H58.5839Z" fill="white"/>
<path d="M63.9936 14.3659C63.9343 14.3659 63.8838 14.3476 63.8422 14.3111C63.8066 14.2685 63.7888 14.2168 63.7888 14.156V8.09566C63.7888 8.03482 63.8066 7.98614 63.8422 7.94963C63.8838 7.90704 63.9343 7.88574 63.9936 7.88574H64.4122C64.4716 7.88574 64.5191 7.90704 64.5547 7.94963C64.5962 7.98614 64.617 8.03482 64.617 8.09566V14.156C64.617 14.2168 64.5962 14.2685 64.5547 14.3111C64.5191 14.3476 64.4716 14.3659 64.4122 14.3659H63.9936Z" fill="white"/>
<path d="M67.8423 14.4572C67.1892 14.4572 66.6816 14.2685 66.3195 13.8913C65.9632 13.5141 65.7732 13.0121 65.7495 12.3853L65.7406 11.9929L65.7495 11.6004C65.7732 10.9798 65.9662 10.4808 66.3284 10.1036C66.6905 9.72027 67.1952 9.5286 67.8423 9.5286C68.4895 9.5286 68.9941 9.72027 69.3563 10.1036C69.7184 10.4808 69.9114 10.9798 69.9351 11.6004C69.9411 11.6674 69.9441 11.7982 69.9441 11.9929C69.9441 12.1876 69.9411 12.3184 69.9351 12.3853C69.9114 13.0121 69.7184 13.5141 69.3563 13.8913C69.0001 14.2685 68.4954 14.4572 67.8423 14.4572ZM67.8423 13.7544C68.2164 13.7544 68.5102 13.6327 68.724 13.3893C68.9437 13.1459 69.0624 12.7961 69.0802 12.3397C69.0861 12.2789 69.0891 12.1633 69.0891 11.9929C69.0891 11.8225 69.0861 11.7069 69.0802 11.6461C69.0624 11.1897 68.9437 10.8398 68.724 10.5965C68.5102 10.3531 68.2164 10.2314 67.8423 10.2314C67.4683 10.2314 67.1714 10.3531 66.9518 10.5965C66.7321 10.8398 66.6163 11.1897 66.6044 11.6461L66.5955 11.9929L66.6044 12.3397C66.6163 12.7961 66.7321 13.1459 66.9518 13.3893C67.1714 13.6327 67.4683 13.7544 67.8423 13.7544Z" fill="white"/>
<path d="M72.3505 14.4572C72.0596 14.4572 71.7895 14.3963 71.5401 14.2746C71.2908 14.1529 71.0919 13.9887 70.9434 13.7818C70.8009 13.5688 70.7297 13.3346 70.7297 13.079C70.7297 12.6774 70.89 12.3488 71.2106 12.0933C71.5371 11.8316 71.9765 11.6613 72.5286 11.5822L73.8556 11.3905V11.1258C73.8556 10.5052 73.5083 10.1949 72.8136 10.1949C72.5524 10.1949 72.3386 10.2527 72.1724 10.3683C72.0062 10.4778 71.8815 10.6086 71.7984 10.7607C71.7806 10.8155 71.7568 10.8551 71.7271 10.8794C71.7034 10.9037 71.6678 10.9159 71.6203 10.9159H71.2373C71.1839 10.9159 71.1364 10.8976 71.0948 10.8611C71.0592 10.8185 71.0414 10.7699 71.0414 10.7151C71.0473 10.5691 71.1126 10.4048 71.2373 10.2223C71.3679 10.0336 71.5668 9.87238 71.834 9.73852C72.1012 9.59857 72.4307 9.5286 72.8225 9.5286C73.4875 9.5286 73.9654 9.68984 74.2563 10.0123C74.5472 10.3287 74.6927 10.7242 74.6927 11.1988V14.156C74.6927 14.2168 74.6719 14.2685 74.6304 14.3111C74.5947 14.3476 74.5472 14.3659 74.4879 14.3659H74.0782C74.0188 14.3659 73.9684 14.3476 73.9268 14.3111C73.8912 14.2685 73.8734 14.2168 73.8734 14.156V13.7635C73.7428 13.9582 73.5528 14.1225 73.3034 14.2564C73.0541 14.3902 72.7364 14.4572 72.3505 14.4572ZM72.5375 13.7726C72.9235 13.7726 73.2381 13.6449 73.4815 13.3893C73.7309 13.1277 73.8556 12.7535 73.8556 12.2667V12.0111L72.8225 12.1663C72.401 12.2271 72.0834 12.3306 71.8696 12.4766C71.6559 12.6166 71.549 12.7961 71.549 13.0151C71.549 13.2585 71.647 13.4471 71.8429 13.581C72.0388 13.7088 72.2704 13.7726 72.5375 13.7726Z" fill="white"/>
<path d="M77.665 14.4572C77.0476 14.4572 76.5815 14.2503 76.2668 13.8365C75.9522 13.4228 75.7859 12.8995 75.7681 12.2667L75.7592 11.9929L75.7681 11.7191C75.7859 11.0924 75.9522 10.5721 76.2668 10.1584C76.5815 9.73852 77.0476 9.5286 77.665 9.5286C78.2766 9.5286 78.7575 9.75069 79.1077 10.1949V8.09566C79.1077 8.03482 79.1256 7.98614 79.1612 7.94963C79.2027 7.90704 79.2532 7.88574 79.3126 7.88574H79.74C79.7994 7.88574 79.8469 7.90704 79.8825 7.94963C79.9241 7.98614 79.9449 8.03482 79.9449 8.09566V14.156C79.9449 14.2168 79.9241 14.2685 79.8825 14.3111C79.8469 14.3476 79.7994 14.3659 79.74 14.3659H79.3393C79.2799 14.3659 79.2295 14.3476 79.1879 14.3111C79.1523 14.2685 79.1345 14.2168 79.1345 14.156V13.7726C78.7901 14.229 78.3003 14.4572 77.665 14.4572ZM77.8521 13.7179C78.2617 13.7179 78.5675 13.581 78.7693 13.3072C78.9771 13.0273 79.0899 12.6957 79.1077 12.3123C79.1137 12.2454 79.1167 12.1298 79.1167 11.9655C79.1167 11.7951 79.1137 11.6765 79.1077 11.6096C79.0959 11.2506 78.9831 10.9372 78.7693 10.6695C78.5556 10.4017 78.2498 10.2679 77.8521 10.2679C77.4305 10.2679 77.1218 10.4017 76.9259 10.6695C76.7359 10.9372 76.632 11.2901 76.6142 11.7282L76.6053 11.9929C76.6053 13.1429 77.0209 13.7179 77.8521 13.7179Z" fill="white"/>
</svg>
