<svg width="144" height="47" viewBox="0 0 144 47" fill="none" xmlns="http://www.w3.org/2000/svg">
<path d="M10.8366 45.6547C10.4739 45.6547 10.12 45.6503 9.76024 45.6424C9.01488 45.6329 8.27127 45.5697 7.53549 45.4534C6.84942 45.3385 6.1848 45.1245 5.56356 44.8187C4.94801 44.5154 4.38659 44.1177 3.90079 43.641C3.40795 43.1697 2.99765 42.6233 2.68612 42.0232C2.37118 41.4191 2.1532 40.7716 2.03982 40.1033C1.91737 39.3852 1.85112 38.659 1.84164 37.9312C1.8341 37.6868 1.82422 36.8734 1.82422 36.8734V10.1117C1.82422 10.1117 1.83474 9.31074 1.8417 9.07542C1.85078 8.34868 1.91665 7.62367 2.03872 6.90666C2.15232 6.2365 2.37046 5.58716 2.68557 4.98114C2.99595 4.38142 3.40399 3.83451 3.89385 3.36164C4.38316 2.88428 4.94638 2.48458 5.56298 2.17713C6.18279 1.87231 6.84615 1.65989 7.53085 1.54698C8.26903 1.42948 9.01523 1.36595 9.76317 1.35692L10.8372 1.34277H133.158L134.244 1.35749C134.986 1.36606 135.724 1.42902 136.456 1.54585C137.148 1.66017 137.818 1.87408 138.445 2.18052C139.68 2.80013 140.685 3.78041 141.319 4.98397C141.629 5.58581 141.844 6.22985 141.956 6.89421C142.079 7.61711 142.149 8.34783 142.164 9.08052C142.167 9.40861 142.167 9.76101 142.167 10.1117C142.176 10.5462 142.176 10.9597 142.176 11.3765V35.6221C142.176 36.0429 142.176 36.4537 142.167 36.8677C142.167 37.2445 142.167 37.5895 142.161 37.9447C142.148 38.6644 142.081 39.382 141.958 40.092C141.847 40.7651 141.63 41.4176 141.316 42.0267C141.002 42.6202 140.594 43.162 140.107 43.6319C139.621 44.1113 139.058 44.5113 138.442 44.8165C137.816 45.1246 137.147 45.3394 136.456 45.4534C135.72 45.5704 134.977 45.6335 134.231 45.6424C133.883 45.6503 133.518 45.6547 133.163 45.6547L131.873 45.6571L10.8366 45.6547Z" fill="#202020"/>
<path fill-rule="evenodd" clip-rule="evenodd" d="M51.2081 28.1203V30.1138H55.7259C55.5915 31.2328 55.2369 32.0514 54.6969 32.621C54.0397 33.3133 53.0107 34.0784 51.2081 34.0784C48.4263 34.0784 46.2521 31.713 46.2521 28.7792C46.2521 25.8431 48.4263 23.4789 51.2081 23.4789C52.7092 23.4789 53.8036 24.1021 54.6135 24.9017L55.9462 23.4956C54.8156 22.3576 53.3157 21.4854 51.2081 21.4854C47.3973 21.4854 44.1943 24.7587 44.1943 28.7792C44.1943 32.7986 47.3986 36.0707 51.2081 36.0707C53.2649 36.0707 54.8156 35.3593 56.0297 34.0259C57.2766 32.7104 57.6652 30.8598 57.6652 29.3655C57.6652 28.9032 57.6313 28.4766 57.5636 28.1203H51.2081ZM62.8008 26.6807C60.3398 26.6807 58.3327 28.654 58.3327 31.3745C58.3327 34.0782 60.3398 36.0694 62.8008 36.0694C65.2631 36.0694 67.269 34.077 67.269 31.3745C67.2678 28.654 65.262 26.6807 62.8008 26.6807ZM68.0786 31.3745C68.0786 28.654 70.0834 26.6807 72.5456 26.6807C75.0078 26.6807 77.0137 28.654 77.0137 31.3745C77.0137 34.077 75.0078 36.0694 72.5456 36.0694C70.0834 36.0694 68.0786 34.0782 68.0786 31.3745ZM70.0337 31.3747C70.0337 33.0477 71.1982 34.2215 72.5456 34.2215C73.8941 34.2215 75.0587 33.0477 75.0587 31.3747C75.0587 29.6862 73.8941 28.5291 72.5456 28.5291C71.197 28.5291 70.0337 29.6862 70.0337 31.3747ZM60.2889 31.3747C60.2889 33.0477 61.4522 34.2215 62.8008 34.2215C64.1493 34.2215 65.3115 33.0477 65.3127 31.3747C65.3127 29.6862 64.1493 28.5291 62.8008 28.5291C61.4522 28.5291 60.2889 29.6862 60.2889 31.3747ZM94.8092 26.6807C97.1189 26.6807 98.2482 28.6182 98.6188 29.6681L98.822 30.2007L92.8722 32.7972C93.3262 33.7398 94.0343 34.22 95.0272 34.22C96.0233 34.22 96.7145 33.7041 97.2194 32.9212L98.7373 33.9889C98.2482 34.7539 97.068 36.0694 95.0272 36.0694C92.4995 36.0694 90.611 34.0067 90.611 31.3745C90.611 28.5837 92.5175 26.6807 94.8092 26.6807ZM92.5503 31.234C92.4995 29.4195 93.8831 28.4931 94.8781 28.4931C95.6551 28.4931 96.3103 28.9033 96.5304 29.4898L92.5503 31.234ZM89.6656 35.7877H87.7117V21.984H89.6656V35.7877ZM84.5087 27.7293H84.4398C84.0004 27.1788 83.1578 26.6807 82.0973 26.6807C79.8712 26.6807 77.8314 28.7434 77.8314 31.3935C77.8314 34.0258 79.8724 36.0706 82.0973 36.0706C83.1578 36.0706 84.0016 35.5725 84.4398 35.0029H84.5087V35.6786C84.5087 37.4767 83.5973 38.4348 82.1312 38.4348C80.9351 38.4348 80.1919 37.528 79.8904 36.7641L78.1872 37.5101C78.6774 38.7553 79.974 40.2854 82.1312 40.2854C84.4251 40.2854 86.3644 38.8626 86.3644 35.3938V26.9643H84.5087V27.7293ZM79.7887 31.3936C79.7887 33.0297 80.9181 34.2213 82.2656 34.2213C83.5983 34.2213 84.6441 33.0297 84.643 31.3936C84.643 29.7397 83.5983 28.5302 82.2656 28.5302C80.9181 28.5302 79.7887 29.7385 79.7887 31.3936ZM107.78 21.984H103.1V35.7865H105.053V30.5565H107.78C109.944 30.5565 112.073 28.9038 112.073 26.2691C112.073 23.638 109.944 21.984 107.78 21.984ZM105.053 28.6373H107.83C109.291 28.6373 110.118 27.342 110.118 26.2708C110.118 25.1816 109.291 23.9066 107.83 23.9066H105.053V28.6373ZM119.896 26.6546C118.482 26.6546 117.02 27.3124 116.414 28.7673L118.147 29.5311C118.515 28.7673 119.206 28.5195 119.929 28.5195C120.941 28.5195 121.968 29.1582 121.983 30.2938V30.4356C121.631 30.2223 120.873 29.9041 119.947 29.9041C118.078 29.9041 116.176 30.9861 116.176 33.0107C116.176 34.8577 117.707 36.0469 119.426 36.0469C120.736 36.0469 121.462 35.4261 121.914 34.6968H121.983V35.7633H123.868V30.4725C123.869 28.0214 122.136 26.6546 119.896 26.6546ZM118.132 33.0483C118.132 33.8828 119.025 34.2203 119.662 34.2203C120.792 34.2203 121.834 33.313 121.985 32.0362C121.464 31.7691 121.059 31.5736 120.202 31.5736C119.243 31.5736 118.132 31.9813 118.132 33.0483ZM130.735 26.9562L128.498 32.9393H128.43L126.106 26.9562H124.004L127.488 35.3201L125.502 39.971H127.538L132.907 26.9562H130.735ZM115.102 35.7877H113.149V21.984H115.102V35.7877Z" fill="white"/>
<path d="M11.5671 8.13624C11.2686 8.46575 11.0928 8.97794 11.0928 9.6416V33.3319C11.0928 33.9956 11.2686 34.5089 11.5671 34.8373L11.6423 34.9148L24.3335 21.6417V21.3295L11.6434 8.05762L11.5671 8.13624Z" fill="url(#paint0_linear_2801_192)"/>
<path d="M28.636 26.857L24.333 22.3171V21.9969L28.6383 17.457L28.735 17.5151L33.8332 20.5702C35.2897 21.4419 35.2897 22.8698 33.8332 23.7439L28.735 26.7977L28.636 26.857Z" fill="url(#paint1_linear_2801_192)"/>
<path d="M28.3057 25.8952L23.9482 21.4854L11.0928 34.4985C11.5682 35.0079 12.353 35.071 13.2371 34.5639L28.3057 25.8952Z" fill="url(#paint2_linear_2801_192)"/>
<path d="M28.3057 17.0759L13.2371 8.40864C12.353 7.90033 11.5682 7.96345 11.0928 8.47289L23.9482 21.4862L28.3057 17.0759Z" fill="url(#paint3_linear_2801_192)"/>
<path d="M44.3992 14.6786C44.3398 14.6786 44.2893 14.66 44.2478 14.6227C44.2121 14.5792 44.1943 14.5263 44.1943 14.4642V8.37468C44.1943 8.30629 44.2121 8.25345 44.2478 8.21615C44.2893 8.17263 44.3398 8.15087 44.3992 8.15087H46.4207C47.3172 8.15087 47.9644 8.36225 48.3622 8.785C48.76 9.20153 48.9678 9.83255 48.9856 10.6781C48.9915 10.8583 48.9945 11.1008 48.9945 11.4054C48.9945 11.7101 48.9915 11.9556 48.9856 12.1421C48.9678 12.7327 48.8728 13.2146 48.7006 13.5876C48.5344 13.9544 48.2702 14.2279 47.908 14.4082C47.5458 14.5885 47.0649 14.6786 46.4653 14.6786H44.3992ZM46.4207 13.886C46.8304 13.886 47.154 13.8269 47.3915 13.7088C47.6349 13.5907 47.81 13.4042 47.9169 13.1493C48.0297 12.8882 48.092 12.54 48.1039 12.1048C48.1158 11.7318 48.1217 11.4987 48.1217 11.4054C48.1217 11.306 48.1158 11.0759 48.1039 10.7154C48.092 10.0999 47.9525 9.65226 47.6853 9.3725C47.4182 9.08652 46.9818 8.94353 46.3762 8.94353H45.0671V13.886H46.4207Z" fill="white"/>
<path d="M52.1155 14.7719C51.4624 14.7719 50.9548 14.5792 50.5926 14.1937C50.2364 13.8083 50.0464 13.2954 50.0227 12.655L50.0138 12.254L50.0227 11.8531C50.0464 11.2189 50.2394 10.7091 50.6015 10.3237C50.9637 9.93202 51.4683 9.73619 52.1155 9.73619C52.7626 9.73619 53.2673 9.93202 53.6294 10.3237C53.9916 10.7091 54.1846 11.2189 54.2083 11.8531C54.2142 11.9214 54.2172 12.0551 54.2172 12.254C54.2172 12.453 54.2142 12.5867 54.2083 12.655C54.1846 13.2954 53.9916 13.8083 53.6294 14.1937C53.2732 14.5792 52.7686 14.7719 52.1155 14.7719ZM52.1155 14.0538C52.4895 14.0538 52.7834 13.9295 52.9971 13.6808C53.2168 13.4322 53.3356 13.0747 53.3534 12.6084C53.3593 12.5462 53.3623 12.4281 53.3623 12.254C53.3623 12.08 53.3593 11.9618 53.3534 11.8997C53.3356 11.4334 53.2168 11.0759 52.9971 10.8273C52.7834 10.5786 52.4895 10.4542 52.1155 10.4542C51.7414 10.4542 51.4446 10.5786 51.2249 10.8273C51.0052 11.0759 50.8895 11.4334 50.8776 11.8997L50.8687 12.254L50.8776 12.6084C50.8895 13.0747 51.0052 13.4322 51.2249 13.6808C51.4446 13.9295 51.7414 14.0538 52.1155 14.0538Z" fill="white"/>
<path d="M56.4396 14.6786C56.3624 14.6786 56.303 14.66 56.2615 14.6227C56.2199 14.5854 56.1843 14.5263 56.1546 14.4455L54.89 10.1185L54.8722 10.0253C54.8722 9.96932 54.89 9.9227 54.9256 9.8854C54.9672 9.84809 55.0117 9.82944 55.0592 9.82944H55.4511C55.5104 9.82944 55.5579 9.84809 55.5936 9.8854C55.6351 9.91648 55.6618 9.95067 55.6737 9.98797L56.6622 13.5036L57.722 10.0253C57.7339 9.97554 57.7606 9.93202 57.8022 9.89472C57.8437 9.8512 57.9001 9.82944 57.9714 9.82944H58.2742C58.3454 9.82944 58.4018 9.8512 58.4434 9.89472C58.4849 9.93202 58.5116 9.97554 58.5235 10.0253L59.5833 13.5036L60.5718 9.98797C60.5777 9.95689 60.5985 9.9227 60.6341 9.8854C60.6757 9.84809 60.7262 9.82944 60.7855 9.82944H61.1863C61.2338 9.82944 61.2754 9.84809 61.311 9.8854C61.3466 9.9227 61.3644 9.96932 61.3644 10.0253L61.3466 10.1185L60.0909 14.4455C60.0612 14.5263 60.0256 14.5854 59.984 14.6227C59.9425 14.66 59.8801 14.6786 59.797 14.6786H59.4497C59.2894 14.6786 59.1914 14.6009 59.1558 14.4455L58.1228 11.107L57.0897 14.4455C57.0422 14.6009 56.9413 14.6786 56.7869 14.6786H56.4396Z" fill="white"/>
<path d="M62.5556 14.6786C62.4962 14.6786 62.4458 14.66 62.4042 14.6227C62.3686 14.5792 62.3508 14.5263 62.3508 14.4642V10.0439C62.3508 9.98176 62.3686 9.93202 62.4042 9.89472C62.4458 9.8512 62.4962 9.82944 62.5556 9.82944H62.9742C63.0335 9.82944 63.081 9.8512 63.1167 9.89472C63.1582 9.93202 63.179 9.98176 63.179 10.0439V10.4542C63.3512 10.2242 63.553 10.047 63.7846 9.9227C64.0221 9.79836 64.316 9.73619 64.6662 9.73619C65.2362 9.73619 65.6785 9.92891 65.9932 10.3144C66.3138 10.6936 66.4741 11.2003 66.4741 11.8344V14.4642C66.4741 14.5263 66.4533 14.5792 66.4118 14.6227C66.3761 14.66 66.3286 14.6786 66.2693 14.6786H65.824C65.7646 14.6786 65.7141 14.66 65.6726 14.6227C65.637 14.5792 65.6191 14.5263 65.6191 14.4642V11.881C65.6191 11.4396 65.5152 11.0977 65.3075 10.8552C65.1056 10.6128 64.8117 10.4915 64.4258 10.4915C64.0518 10.4915 63.7549 10.6159 63.5352 10.8646C63.3156 11.107 63.2057 11.4458 63.2057 11.881V14.4642C63.2057 14.5263 63.1849 14.5792 63.1434 14.6227C63.1078 14.66 63.0603 14.6786 63.0009 14.6786H62.5556Z" fill="white"/>
<path d="M67.9653 14.6786C67.9059 14.6786 67.8555 14.66 67.8139 14.6227C67.7783 14.5792 67.7605 14.5263 67.7605 14.4642V8.2721C67.7605 8.20993 67.7783 8.1602 67.8139 8.1229C67.8555 8.07938 67.9059 8.05762 67.9653 8.05762H68.3839C68.4432 8.05762 68.4907 8.07938 68.5264 8.1229C68.5679 8.1602 68.5887 8.20993 68.5887 8.2721V14.4642C68.5887 14.5263 68.5679 14.5792 68.5264 14.6227C68.4907 14.66 68.4432 14.6786 68.3839 14.6786H67.9653Z" fill="white"/>
<path d="M71.814 14.7719C71.1609 14.7719 70.6533 14.5792 70.2911 14.1937C69.9349 13.8083 69.7449 13.2954 69.7212 12.655L69.7123 12.254L69.7212 11.8531C69.7449 11.2189 69.9379 10.7091 70.3 10.3237C70.6622 9.93202 71.1669 9.73619 71.814 9.73619C72.4611 9.73619 72.9658 9.93202 73.328 10.3237C73.6901 10.7091 73.8831 11.2189 73.9068 11.8531C73.9128 11.9214 73.9157 12.0551 73.9157 12.254C73.9157 12.453 73.9128 12.5867 73.9068 12.655C73.8831 13.2954 73.6901 13.8083 73.328 14.1937C72.9717 14.5792 72.4671 14.7719 71.814 14.7719ZM71.814 14.0538C72.188 14.0538 72.4819 13.9295 72.6957 13.6808C72.9153 13.4322 73.0341 13.0747 73.0519 12.6084C73.0578 12.5462 73.0608 12.4281 73.0608 12.254C73.0608 12.08 73.0578 11.9618 73.0519 11.8997C73.0341 11.4334 72.9153 11.0759 72.6957 10.8273C72.4819 10.5786 72.188 10.4542 71.814 10.4542C71.44 10.4542 71.1431 10.5786 70.9234 10.8273C70.7038 11.0759 70.588 11.4334 70.5761 11.8997L70.5672 12.254L70.5761 12.6084C70.588 13.0747 70.7038 13.4322 70.9234 13.6808C71.1431 13.9295 71.44 14.0538 71.814 14.0538Z" fill="white"/>
<path d="M76.3222 14.7719C76.0313 14.7719 75.7611 14.7097 75.5118 14.5854C75.2624 14.4611 75.0635 14.2932 74.9151 14.0818C74.7726 13.8642 74.7014 13.6249 74.7014 13.3638C74.7014 12.9534 74.8617 12.6177 75.1823 12.3566C75.5088 12.0893 75.9482 11.9152 76.5003 11.8344L77.8273 11.6386V11.3681C77.8273 10.734 77.4799 10.4169 76.7853 10.4169C76.5241 10.4169 76.3103 10.476 76.1441 10.5941C75.9778 10.706 75.8532 10.8397 75.77 10.9951C75.7522 11.0511 75.7285 11.0915 75.6988 11.1163C75.6751 11.1412 75.6394 11.1536 75.5919 11.1536H75.209C75.1556 11.1536 75.1081 11.135 75.0665 11.0977C75.0309 11.0542 75.0131 11.0044 75.0131 10.9485C75.019 10.7993 75.0843 10.6314 75.209 10.4449C75.3396 10.2522 75.5385 10.0874 75.8057 9.95067C76.0728 9.80768 76.4023 9.73619 76.7942 9.73619C77.4591 9.73619 77.9371 9.90094 78.228 10.2304C78.5189 10.5537 78.6644 10.9578 78.6644 11.4427V14.4642C78.6644 14.5263 78.6436 14.5792 78.602 14.6227C78.5664 14.66 78.5189 14.6786 78.4595 14.6786H78.0499C77.9905 14.6786 77.9401 14.66 77.8985 14.6227C77.8629 14.5792 77.8451 14.5263 77.8451 14.4642V14.0632C77.7144 14.2621 77.5245 14.43 77.2751 14.5667C77.0257 14.7035 76.7081 14.7719 76.3222 14.7719ZM76.5092 14.0725C76.8951 14.0725 77.2098 13.9419 77.4532 13.6808C77.7026 13.4135 77.8273 13.0312 77.8273 12.5338V12.2727L76.7942 12.4312C76.3727 12.4934 76.055 12.5991 75.8413 12.7483C75.6276 12.8913 75.5207 13.0747 75.5207 13.2985C75.5207 13.5472 75.6187 13.7399 75.8146 13.8767C76.0105 14.0072 76.242 14.0725 76.5092 14.0725Z" fill="white"/>
<path d="M81.6367 14.7719C81.0192 14.7719 80.5532 14.5605 80.2385 14.1378C79.9239 13.715 79.7576 13.1804 79.7398 12.5338L79.7309 12.254L79.7398 11.9743C79.7576 11.3339 79.9239 10.8024 80.2385 10.3796C80.5532 9.95067 81.0192 9.73619 81.6367 9.73619C82.2482 9.73619 82.7291 9.96311 83.0794 10.4169V8.2721C83.0794 8.20993 83.0972 8.1602 83.1329 8.1229C83.1744 8.07938 83.2249 8.05762 83.2842 8.05762H83.7117C83.7711 8.05762 83.8186 8.07938 83.8542 8.1229C83.8958 8.1602 83.9165 8.20993 83.9165 8.2721V14.4642C83.9165 14.5263 83.8958 14.5792 83.8542 14.6227C83.8186 14.66 83.7711 14.6786 83.7117 14.6786H83.311C83.2516 14.6786 83.2011 14.66 83.1596 14.6227C83.1239 14.5792 83.1061 14.5263 83.1061 14.4642V14.0725C82.7618 14.5388 82.272 14.7719 81.6367 14.7719ZM81.8237 14.0165C82.2334 14.0165 82.5391 13.8767 82.741 13.5969C82.9488 13.3109 83.0616 12.9721 83.0794 12.5804C83.0854 12.512 83.0883 12.3939 83.0883 12.2261C83.0883 12.052 83.0854 11.9308 83.0794 11.8624C83.0675 11.4956 82.9547 11.1754 82.741 10.9019C82.5273 10.6283 82.2215 10.4915 81.8237 10.4915C81.4022 10.4915 81.0935 10.6283 80.8975 10.9019C80.7076 11.1754 80.6037 11.536 80.5858 11.9836L80.5769 12.254C80.5769 13.429 80.9925 14.0165 81.8237 14.0165Z" fill="white"/>
<defs>
<linearGradient id="paint0_linear_2801_192" x1="18.7766" y1="-8.04399" x2="-1.66317" y2="-2.84875" gradientUnits="userSpaceOnUse">
<stop stop-color="#00A0FF"/>
<stop offset="0.0066" stop-color="#00A1FF"/>
<stop offset="0.2601" stop-color="#00BEFF"/>
<stop offset="0.5122" stop-color="#00D2FF"/>
<stop offset="0.7604" stop-color="#00DFFF"/>
<stop offset="1" stop-color="#00E3FF"/>
</linearGradient>
<linearGradient id="paint1_linear_2801_192" x1="35.7282" y1="10.9682" x2="10.5144" y2="10.9682" gradientUnits="userSpaceOnUse">
<stop stop-color="#FFE000"/>
<stop offset="0.4087" stop-color="#FFBD00"/>
<stop offset="0.7754" stop-color="#FFA500"/>
<stop offset="1" stop-color="#FF9C00"/>
</linearGradient>
<linearGradient id="paint2_linear_2801_192" x1="10.7084" y1="14.7251" x2="-6.01819" y2="42.5448" gradientUnits="userSpaceOnUse">
<stop stop-color="#FF3A44"/>
<stop offset="1" stop-color="#C31162"/>
</linearGradient>
<linearGradient id="paint3_linear_2801_192" x1="1.0562" y1="4.87348" x2="8.52494" y2="17.2968" gradientUnits="userSpaceOnUse">
<stop stop-color="#32A071"/>
<stop offset="0.0685" stop-color="#2DA771"/>
<stop offset="0.4762" stop-color="#15CF74"/>
<stop offset="0.8009" stop-color="#06E775"/>
<stop offset="1" stop-color="#00F076"/>
</linearGradient>
</defs>
</svg>
