<svg width="22" height="21" viewBox="0 0 22 21" fill="none" xmlns="http://www.w3.org/2000/svg">
<path fill-rule="evenodd" clip-rule="evenodd" d="M6.08982 18.3333C6.32292 17.4303 7.14372 16.7619 8.11905 16.7619C9.09438 16.7619 9.91519 17.4303 10.1483 18.3333H21.4762C21.5495 18.3333 21.6218 18.3485 21.6888 18.3783C21.7512 18.4061 21.8083 18.4464 21.8554 18.4957C21.9005 18.5428 21.9366 18.5989 21.9612 18.6591C21.9837 18.7146 21.9968 18.7738 21.9995 18.8335C22.0021 18.8906 21.9953 18.9483 21.979 19.0038C21.9649 19.0525 21.9434 19.0991 21.9156 19.1421C21.8549 19.2358 21.7637 19.3086 21.659 19.3479C21.6019 19.3694 21.5406 19.3804 21.4793 19.3809H21.4762H10.1483C9.91519 20.284 9.09438 20.9523 8.11905 20.9523C7.14372 20.9523 6.32292 20.284 6.08982 19.3809H0.523827C0.462541 19.3809 0.401259 19.3704 0.34364 19.349C0.23783 19.3102 0.145643 19.2369 0.0843569 19.1421C0.056595 19.0991 0.0351177 19.0525 0.0209749 19.0038C0.00473683 18.9483 -0.00207345 18.8906 0.000545594 18.8335C0.00316464 18.7738 0.0162588 18.7146 0.0387826 18.6591C0.0634016 18.5989 0.0995422 18.5428 0.14459 18.4957C0.191733 18.4464 0.248824 18.4061 0.311157 18.3783C0.378205 18.3485 0.450493 18.3333 0.523827 18.3333H6.08982ZM8.11905 17.8095C8.69734 17.8095 9.16667 18.2788 9.16667 18.8571C9.16667 19.4354 8.69734 19.9047 8.11905 19.9047C7.54077 19.9047 7.07143 19.4354 7.07143 18.8571C7.07143 18.2788 7.54077 17.8095 8.11905 17.8095ZM14.4708 9.95236C14.7039 9.04932 15.5247 8.38094 16.5 8.38094C17.4753 8.38094 18.2961 9.04932 18.5292 9.95236H21.4762C21.5495 9.95236 21.6218 9.96755 21.6888 9.99741C21.7512 10.0252 21.8083 10.0655 21.8554 10.1147C21.9005 10.1619 21.9366 10.2179 21.9612 10.2782C21.9837 10.3337 21.9968 10.3929 21.9995 10.4526C22.0021 10.5097 21.9953 10.5673 21.979 10.6228C21.9649 10.6716 21.9434 10.7182 21.9156 10.7611C21.8549 10.8549 21.7637 10.9277 21.659 10.967C21.6019 10.9885 21.5406 10.9995 21.4793 11H21.4762H18.5292C18.2961 11.903 17.4753 12.5714 16.5 12.5714C15.5247 12.5714 14.7039 11.903 14.4708 11H0.523827C0.450493 11 0.378205 10.9848 0.311157 10.9549C0.248824 10.9272 0.191733 10.8868 0.14459 10.8376C0.0995422 10.7905 0.0634016 10.7344 0.0387826 10.6742C0.0162588 10.6186 0.00316464 10.5595 0.000545594 10.4998C-0.00207345 10.4427 0.00473683 10.385 0.0209749 10.3295C0.0351177 10.2808 0.056595 10.2342 0.0843569 10.1912C0.145643 10.0964 0.23783 10.0231 0.34364 9.98432C0.401259 9.96284 0.462541 9.95236 0.523827 9.95236H14.4708ZM16.5 9.42856C17.0783 9.42856 17.5476 9.89789 17.5476 10.4762C17.5476 11.0545 17.0783 11.5238 16.5 11.5238C15.9217 11.5238 15.4524 11.0545 15.4524 10.4762C15.4524 9.89789 15.9217 9.42856 16.5 9.42856ZM2.68506 1.57143C2.91816 0.66838 3.73896 0 4.7143 0C5.68963 0 6.51043 0.66838 6.74353 1.57143H21.4762C21.5495 1.57143 21.6218 1.58662 21.6888 1.61647C21.7512 1.64423 21.8083 1.68457 21.8554 1.73381C21.9005 1.78095 21.9366 1.83699 21.9612 1.89723C21.9837 1.95276 21.9968 2.01195 21.9995 2.07166C22.0021 2.12876 21.9953 2.18638 21.979 2.2419C21.9649 2.29061 21.9434 2.33724 21.9156 2.38019C21.8549 2.47395 21.7637 2.54676 21.659 2.58604C21.6019 2.60752 21.5406 2.61852 21.4793 2.61904H21.4762H6.74353C6.51043 3.52209 5.68963 4.19047 4.7143 4.19047C3.73896 4.19047 2.91816 3.52209 2.68506 2.61904H0.523827C0.462541 2.61904 0.401259 2.60856 0.34364 2.58709C0.23783 2.54833 0.145643 2.475 0.0843569 2.38019C0.056595 2.33724 0.0351177 2.29061 0.0209749 2.2419C0.00473683 2.18638 -0.00207345 2.12876 0.000545594 2.07166C0.00316464 2.01195 0.0162588 1.95276 0.0387826 1.89723C0.0634016 1.83699 0.0995422 1.78095 0.14459 1.73381C0.191733 1.68457 0.248824 1.64423 0.311157 1.61647C0.378205 1.58662 0.450493 1.57143 0.523827 1.57143H2.68506ZM4.7143 1.04762C5.29258 1.04762 5.76191 1.51695 5.76191 2.09523C5.76191 2.67352 5.29258 3.14285 4.7143 3.14285C4.13601 3.14285 3.66668 2.67352 3.66668 2.09523C3.66668 1.51695 4.13601 1.04762 4.7143 1.04762Z" fill="#000046"/>
</svg>
