<svg width="25" height="22" viewBox="0 0 25 22" fill="none" xmlns="http://www.w3.org/2000/svg">
<path d="M17.733 0C15.583 0.00332031 13.5689 1.05195 12.333 2.81113C11.0971 1.05195 9.08301 0.00332031 6.93301 0C3.41699 0 0.333008 3.27129 0.333008 7C0.333008 10.634 2.38496 14.3768 6.26738 17.824C8.06621 19.4182 10.0395 20.8039 12.1494 21.9553C12.2646 22.0146 12.4014 22.0146 12.5166 21.9553C14.6258 20.8039 16.5984 19.418 18.3967 17.824C22.2811 14.3768 24.333 10.634 24.333 7C24.333 3.27129 21.249 0 17.733 0ZM12.333 21.1451C10.8639 20.3344 1.13301 14.6703 1.13301 7C1.13301 3.69727 3.84297 0.8 6.93301 0.8C9.02637 0.803711 10.9561 1.93301 11.9846 3.75645C12.0615 3.87402 12.1926 3.94473 12.333 3.94473C12.4734 3.94473 12.6045 3.87402 12.6814 3.75645C13.71 1.93301 15.6396 0.803711 17.733 0.8C20.823 0.8 23.533 3.69727 23.533 7C23.533 14.6703 13.8021 20.3344 12.333 21.1451Z" fill="#851FFF"/>
<path d="M12.333 21.1451C10.8639 20.3344 1.13301 14.6703 1.13301 7C1.13301 3.69727 3.84297 0.8 6.93301 0.8C9.02637 0.803711 10.9561 1.93301 11.9846 3.75645C12.0615 3.87402 12.1926 3.94473 12.333 3.94473C12.4734 3.94473 12.6045 3.87402 12.6814 3.75645C13.71 1.93301 15.6396 0.803711 17.733 0.8C20.823 0.8 23.533 3.69727 23.533 7C23.533 14.6703 13.8021 20.3344 12.333 21.1451Z" fill="#851FFF"/>
</svg>
