<svg width="24" height="24" viewBox="0 0 24 24" fill="none" xmlns="http://www.w3.org/2000/svg">
<path d="M21.1055 7.25273C20.5925 6.34036 20.0359 6.17255 18.9025 6.10873C17.7704 6.03191 14.9234 6 12.4569 6C9.98573 6 7.13755 6.03191 6.00655 6.10755C4.87555 6.17255 4.31773 6.33918 3.80009 7.25273C3.27182 8.16391 3 9.73336 3 12.4965C3 12.4988 3 12.5 3 12.5C3 12.5024 3 12.5035 3 12.5035V12.5059C3 15.2572 3.27182 16.8385 3.80009 17.7402C4.31773 18.6525 4.87436 18.818 6.00536 18.8948C7.13755 18.961 9.98573 19 12.4569 19C14.9234 19 17.7704 18.961 18.9037 18.896C20.0371 18.8192 20.5937 18.6537 21.1066 17.7414C21.6396 16.8396 21.9091 15.2584 21.9091 12.5071C21.9091 12.5071 21.9091 12.5035 21.9091 12.5012C21.9091 12.5012 21.9091 12.4988 21.9091 12.4976C21.9091 9.73336 21.6396 8.16391 21.1055 7.25273Z" fill="white"/>
<path d="M10.0898 16.046V8.95508L15.9989 12.5005L10.0898 16.046Z" fill="#000046"/>
</svg>
